<svg width="20" height="20" viewBox="0 0 20 20" fill="none" xmlns="http://www.w3.org/2000/svg">
<path opacity="0.32" fill-rule="evenodd" clip-rule="evenodd" d="M1.76993 6.66663H18.2297C18.2888 7.66753 18.3332 9.02216 18.3332 10.8333C18.3332 13.7368 18.2191 15.4671 18.1133 16.4476C18.035 17.174 17.543 17.7341 16.8251 17.8701C15.7077 18.0818 13.6188 18.3333 9.99984 18.3333C6.38088 18.3333 4.29196 18.0818 3.17456 17.8701C2.45672 17.7341 1.96471 17.174 1.88633 16.4476C1.78052 15.4671 1.6665 13.7368 1.6665 10.8333C1.6665 9.02216 1.71087 7.66753 1.76993 6.66663ZM5.4165 10.5679C5.4165 10.0671 5.77746 9.67342 6.27792 9.65563C6.92784 9.63246 8.05559 9.60617 9.99984 9.58904C12.0889 9.57059 13.2353 9.59967 13.8592 9.63321C14.296 9.65671 14.5832 9.99546 14.5832 10.433V10.7589C14.5832 11.2271 14.2629 11.591 13.7951 11.6116C13.158 11.6395 12.0194 11.6666 9.99984 11.6666C7.98025 11.6666 6.84171 11.6395 6.20455 11.6116C5.7368 11.591 5.4165 11.2271 5.4165 10.7589V10.5679ZM5.4165 14.2408C5.4165 13.7729 5.73684 13.3994 6.20413 13.3752C6.6438 13.3525 7.31609 13.3333 8.33317 13.3333C9.35025 13.3333 10.0225 13.3525 10.4622 13.3752C10.9295 13.3994 11.2498 13.7729 11.2498 14.2408V14.5092C11.2498 14.9771 10.9295 15.3506 10.4622 15.3748C10.0225 15.3975 9.35025 15.4167 8.33317 15.4167C7.31609 15.4167 6.6438 15.3975 6.20413 15.3748C5.73684 15.3506 5.4165 14.9771 5.4165 14.5092V14.2408Z" fill="#FF5630"/>
<path d="M14.9292 1.69273C15.1897 1.71421 15.3687 1.905 15.3863 2.16576C15.4026 2.40532 15.4167 2.77433 15.4167 3.33335C15.4167 3.42315 15.4163 3.50805 15.4156 3.5883C15.9999 3.65529 16.4635 3.72799 16.8252 3.79653C17.543 3.93253 18.035 4.49265 18.1134 5.21906C18.1532 5.58794 18.1942 6.06298 18.2298 6.66669H1.77002C1.80564 6.06298 1.84661 5.58794 1.88642 5.21906C1.9648 4.49265 2.45681 3.93254 3.17465 3.79653C3.53641 3.72798 4 3.65527 4.58437 3.58828C4.58371 3.50804 4.58333 3.42315 4.58333 3.33335C4.58333 2.77433 4.59741 2.40532 4.61366 2.16576C4.63133 1.905 4.81033 1.71421 5.07079 1.69273C5.24804 1.67812 5.49483 1.66669 5.83333 1.66669C6.17183 1.66669 6.41862 1.67812 6.59587 1.69273C6.85633 1.71421 7.03533 1.905 7.053 2.16576C7.06925 2.40532 7.08333 2.77433 7.08333 3.33335C7.08333 3.35452 7.08333 3.37541 7.08329 3.39603C7.92204 3.35705 8.88887 3.33335 9.99991 3.33335C11.111 3.33335 12.0779 3.35706 12.9167 3.39604L12.9167 3.33335C12.9167 2.77433 12.9307 2.40532 12.947 2.16576C12.9647 1.905 13.1437 1.71421 13.4041 1.69273C13.5814 1.67812 13.8282 1.66669 14.1667 1.66669C14.5052 1.66669 14.752 1.67812 14.9292 1.69273Z" fill="#FF5630"/>
<path fill-rule="evenodd" clip-rule="evenodd" d="M6.27808 9.65568C5.77762 9.67347 5.41666 10.0671 5.41666 10.5679V10.7589C5.41666 11.2271 5.73696 11.5911 6.20471 11.6116C6.84187 11.6396 7.98041 11.6667 10 11.6667C12.0196 11.6667 13.1581 11.6396 13.7953 11.6116C14.263 11.5911 14.5833 11.2271 14.5833 10.7589V10.433C14.5833 9.99551 14.2962 9.65676 13.8593 9.63326C13.2355 9.59972 12.0891 9.57064 10 9.58909C8.05575 9.60622 6.928 9.63251 6.27808 9.65568ZM6.20429 13.3753C5.737 13.3994 5.41666 13.773 5.41666 14.2409V14.5092C5.41666 14.9771 5.737 15.3507 6.20429 15.3748C6.64396 15.3976 7.31625 15.4167 8.33333 15.4167C9.35041 15.4167 10.0227 15.3976 10.4624 15.3748C10.9297 15.3507 11.25 14.9771 11.25 14.5092V14.2409C11.25 13.773 10.9297 13.3994 10.4624 13.3753C10.0227 13.3526 9.35041 13.3334 8.33333 13.3334C7.31625 13.3334 6.64396 13.3526 6.20429 13.3753Z" fill="#FF5630"/>
</svg>
