<svg width="20" height="20" viewBox="0 0 20 20" fill="none" xmlns="http://www.w3.org/2000/svg">
<path opacity="0.32" d="M17.6505 14.1419C17.4141 14.6879 16.8519 15 16.257 15H12.346C12.3717 14.9288 12.3944 14.8558 12.414 14.7811C12.6423 13.9145 12.4019 13.0325 11.851 12.4136C12.0543 10.7576 12.1813 9.06105 12.2588 7.72097C12.2973 7.05609 11.4827 6.83401 11.1893 7.42938C10.598 8.62938 9.87426 10.1632 9.23663 11.7008C8.45542 11.9566 7.81384 12.5981 7.58563 13.4646C7.44685 13.9916 7.48136 14.5243 7.6536 15H3.74267C3.14773 15 2.58557 14.6879 2.34915 14.1419C1.90994 13.1277 1.6665 12.009 1.6665 10.8333C1.6665 6.23096 5.39746 2.5 9.99984 2.5C14.6022 2.5 18.3332 6.23096 18.3332 10.8333C18.3332 12.009 18.0898 13.1277 17.6505 14.1419Z" fill="#00B8D9"/>
<path d="M12.259 7.72095C12.2974 7.05607 11.4829 6.83399 11.1895 7.42936C10.5982 8.62936 9.87442 10.1632 9.23679 11.7008C8.45558 11.9565 7.814 12.598 7.58579 13.4646C7.2285 14.8213 8.01979 16.2158 9.35313 16.5794C10.6865 16.9429 12.057 16.1378 12.4142 14.7811C12.6424 13.9145 12.402 13.0325 11.8511 12.4136C12.0545 10.7576 12.1814 9.06103 12.259 7.72095Z" fill="#00B8D9"/>
</svg>
