<svg width="20" height="20" viewBox="0 0 20 20" fill="none" xmlns="http://www.w3.org/2000/svg">
<path d="M6.66667 17.5H14.8333C15.7668 17.5 16.2335 17.5 16.59 17.3183C16.9036 17.1586 17.1586 16.9036 17.3183 16.59C17.5 16.2335 17.5 15.7668 17.5 14.8333V13.5C17.5 12.5666 17.5 12.0999 17.3183 11.7433C17.1586 11.4297 16.9036 11.1748 16.59 11.015C16.2335 10.8333 15.7668 10.8333 14.8333 10.8333H14.714M9.16667 6.95262L11.0607 5.05863C11.7207 4.3986 12.0507 4.06859 12.4312 3.94494C12.766 3.83618 13.1266 3.83618 13.4613 3.94494C13.8418 4.06859 14.1719 4.3986 14.8319 5.05863L15.7747 6.00144C16.4347 6.66147 16.7647 6.99148 16.8884 7.37203C16.9971 7.70677 16.9971 8.06735 16.8884 8.40209C16.7647 8.78264 16.4347 9.11265 15.7747 9.77268L14.714 10.8333M9.16667 6.95262V5.16667C9.16667 4.23325 9.16667 3.76654 8.98501 3.41002C8.82522 3.09641 8.57025 2.84144 8.25665 2.68166C7.90013 2.5 7.43342 2.5 6.5 2.5H5.16667C4.23325 2.5 3.76654 2.5 3.41002 2.68166C3.09641 2.84144 2.84144 3.09641 2.68166 3.41002C2.5 3.76654 2.5 4.23325 2.5 5.16667V14.8333C2.5 15.7668 2.5 16.2335 2.68166 16.59C2.84144 16.9036 3.09641 17.1586 3.41002 17.3183C3.76654 17.5 4.23325 17.5 5.16667 17.5H6.5C7.43342 17.5 7.90013 17.5 8.25665 17.3183C8.57025 17.1586 8.82522 16.9036 8.98501 16.59C8.99385 16.5726 9.00226 16.555 9.01026 16.5371M9.16667 6.95262V14.8333C9.16667 15.7213 9.16667 16.1869 9.01026 16.5371M14.714 10.8333L9.01026 16.5371M5.83333 14.1667H5.84167" stroke="#00B8D9" stroke-width="2" stroke-linecap="round" stroke-linejoin="round"/>
</svg>
