<svg width="20" height="20" viewBox="0 0 20 20" fill="none" xmlns="http://www.w3.org/2000/svg">
<path opacity="0.5" d="M9.039 18.2784C4.889 17.8017 1.6665 14.2775 1.6665 10C1.6665 5.39752 5.39734 1.66669 9.99984 1.66669C14.6023 1.66669 18.3332 5.39752 18.3332 10C18.3332 14.2975 15.5973 13.9442 13.2615 13.6417C11.9132 13.4675 10.699 13.3109 10.2182 14.0734C9.889 14.595 10.2448 15.245 10.6807 15.6809C10.8101 15.8103 10.9128 15.964 10.9829 16.1332C11.053 16.3023 11.089 16.4836 11.089 16.6667C11.089 16.8498 11.053 17.0311 10.9829 17.2002C10.9128 17.3694 10.8101 17.5231 10.6807 17.6525C10.2448 18.0884 9.6515 18.3492 9.039 18.2784Z" fill="#00A76F"/>
<path d="M9.23734 5.83331C9.23734 6.16483 9.10564 6.48278 8.87122 6.7172C8.6368 6.95162 8.31886 7.08331 7.98734 7.08331C7.65582 7.08331 7.33787 6.95162 7.10345 6.7172C6.86903 6.48278 6.73734 6.16483 6.73734 5.83331C6.73734 5.50179 6.86903 5.18385 7.10345 4.94943C7.33787 4.71501 7.65582 4.58331 7.98734 4.58331C8.31886 4.58331 8.6368 4.71501 8.87122 4.94943C9.10564 5.18385 9.23734 5.50179 9.23734 5.83331ZM5.4165 10.8333C5.74802 10.8333 6.06597 10.7016 6.30039 10.4672C6.53481 10.2328 6.6665 9.91483 6.6665 9.58331C6.6665 9.25179 6.53481 8.93385 6.30039 8.69943C6.06597 8.46501 5.74802 8.33331 5.4165 8.33331C5.08498 8.33331 4.76704 8.46501 4.53262 8.69943C4.2982 8.93385 4.1665 9.25179 4.1665 9.58331C4.1665 9.91483 4.2982 10.2328 4.53262 10.4672C4.76704 10.7016 5.08498 10.8333 5.4165 10.8333ZM14.5832 10.8333C14.9147 10.8333 15.2326 10.7016 15.4671 10.4672C15.7015 10.2328 15.8332 9.91483 15.8332 9.58331C15.8332 9.25179 15.7015 8.93385 15.4671 8.69943C15.2326 8.46501 14.9147 8.33331 14.5832 8.33331C14.2516 8.33331 13.9337 8.46501 13.6993 8.69943C13.4649 8.93385 13.3332 9.25179 13.3332 9.58331C13.3332 9.91483 13.4649 10.2328 13.6993 10.4672C13.9337 10.7016 14.2516 10.8333 14.5832 10.8333ZM12.0832 7.08331C12.2473 7.08331 12.4099 7.05098 12.5615 6.98816C12.7132 6.92534 12.851 6.83327 12.9671 6.7172C13.0831 6.60112 13.1752 6.46332 13.238 6.31167C13.3008 6.16001 13.3332 5.99747 13.3332 5.83331C13.3332 5.66916 13.3008 5.50662 13.238 5.35496C13.1752 5.2033 13.0831 5.0655 12.9671 4.94943C12.851 4.83336 12.7132 4.74128 12.5615 4.67846C12.4099 4.61565 12.2473 4.58331 12.0832 4.58331C11.7516 4.58331 11.4337 4.71501 11.1993 4.94943C10.9649 5.18385 10.8332 5.50179 10.8332 5.83331C10.8332 6.16483 10.9649 6.48278 11.1993 6.7172C11.4337 6.95162 11.7516 7.08331 12.0832 7.08331Z" fill="#00A76F"/>
</svg>
