
<svg width="40" height="40" viewBox="0 0 40 40" fill="none" xmlns="http://www.w3.org/2000/svg">
<path d="M33.8258 26.9125C33.8258 27.7273 33.5021 28.5087 32.9259 29.0849C32.3498 29.661 31.5684 29.9847 30.7536 29.9847H9.248C8.4332 29.9847 7.65177 29.661 7.07561 29.0849C6.49946 28.5087 6.17578 27.7273 6.17578 26.9125V13.0875C6.17578 12.2727 6.49946 11.4912 7.07561 10.9151C7.65177 10.3389 8.4332 10.0153 9.248 10.0153H30.7536C31.5684 10.0153 32.3498 10.3389 32.9259 10.9151C33.5021 11.4912 33.8258 12.2727 33.8258 13.0875V26.9125Z" fill="#E30917"/>
<path d="M19.5039 24.8643C18.2817 24.8643 17.1096 24.3518 16.2454 23.4396C15.3811 22.5273 14.8956 21.2901 14.8956 20C14.8956 18.7099 15.3811 17.4726 16.2454 16.5603C17.1096 15.6481 18.2817 15.1356 19.5039 15.1356C20.5101 15.1356 21.4394 15.4802 22.1975 16.0582C21.669 15.4235 21.0184 14.9151 20.289 14.5669C19.5597 14.2186 18.7683 14.0385 17.9678 14.0387C16.47 14.0387 15.0335 14.6668 13.9744 15.7847C12.9153 16.9027 12.3203 18.4189 12.3203 20C12.3202 20.7829 12.4662 21.5581 12.75 22.2815C13.0338 23.0048 13.4497 23.6621 13.9742 24.2157C14.4986 24.7694 15.1212 25.2086 15.8064 25.5082C16.4917 25.8078 17.2261 25.962 17.9678 25.962C19.6537 25.962 21.1629 25.1781 22.1975 23.9417C21.4146 24.542 20.4716 24.865 19.5039 24.8643ZM22.5093 20.1864L24.3834 20.6421L24.5524 22.6632L25.5416 20.9234L27.4157 21.3782L26.153 19.8475L27.1415 18.1069L25.3727 18.9014L24.11 17.37L24.2789 19.3919L22.5093 20.1864Z" fill="#EEEEEE"/>
</svg>
