<svg xmlns="http://www.w3.org/2000/svg" xmlns:xlink="http://www.w3.org/1999/xlink" width="1600" zoomAndPan="magnify" viewBox="0 0 1200 299.999988" height="400" preserveAspectRatio="xMidYMid meet" version="1.0"><defs><g/><clipPath id="67e7bd2c3d"><path d="M 4.675781 15.179688 L 270.296875 15.179688 L 270.296875 280.796875 L 4.675781 280.796875 Z M 4.675781 15.179688 " clip-rule="nonzero"/></clipPath><clipPath id="da828350ee"><path d="M 21.925781 15.179688 L 253.046875 15.179688 C 257.621094 15.179688 262.007812 16.996094 265.242188 20.230469 C 268.476562 23.464844 270.296875 27.855469 270.296875 32.429688 L 270.296875 263.546875 C 270.296875 268.121094 268.476562 272.511719 265.242188 275.746094 C 262.007812 278.980469 257.621094 280.796875 253.046875 280.796875 L 21.925781 280.796875 C 17.351562 280.796875 12.964844 278.980469 9.726562 275.746094 C 6.492188 272.511719 4.675781 268.121094 4.675781 263.546875 L 4.675781 32.429688 C 4.675781 27.855469 6.492188 23.464844 9.726562 20.230469 C 12.964844 16.996094 17.351562 15.179688 21.925781 15.179688 Z M 21.925781 15.179688 " clip-rule="nonzero"/></clipPath></defs><g clip-path="url(#67e7bd2c3d)"><g clip-path="url(#da828350ee)"><path fill="#8c52ff" d="M 4.675781 15.179688 L 270.296875 15.179688 L 270.296875 280.796875 L 4.675781 280.796875 Z M 4.675781 15.179688 " fill-opacity="1" fill-rule="nonzero"/></g></g><path fill="#ffffff" d="M 112.714844 109.984375 C 120.269531 115.480469 127.605469 112.417969 129.027344 103.1875 L 135.183594 63.179688 C 136.605469 53.949219 138.925781 53.949219 140.34375 63.179688 L 146.503906 103.1875 C 147.921875 112.417969 155.265625 115.472656 162.8125 109.984375 L 197.609375 84.679688 C 205.15625 79.183594 206.84375 80.871094 201.347656 88.425781 L 176.046875 123.214844 C 170.550781 130.769531 173.605469 138.105469 182.835938 139.527344 L 222.851562 145.683594 C 232.082031 147.105469 232.082031 149.425781 222.851562 150.84375 L 182.835938 157.003906 C 173.605469 158.421875 170.550781 165.761719 176.046875 173.3125 L 201.347656 208.109375 C 206.84375 215.65625 205.15625 217.34375 197.609375 211.847656 L 162.8125 186.546875 C 155.265625 181.050781 147.921875 184.105469 146.503906 193.335938 L 140.34375 233.347656 C 138.925781 242.578125 136.605469 242.578125 135.183594 233.347656 L 129.027344 193.335938 C 127.605469 184.105469 120.265625 181.050781 112.714844 186.546875 L 77.925781 211.847656 C 70.378906 217.34375 68.980469 215.882812 74.835938 208.605469 L 103.617188 172.816406 C 109.46875 165.535156 106.683594 158.535156 97.433594 157.261719 L 51.835938 150.964844 C 42.589844 149.683594 42.566406 147.453125 51.792969 146.007812 L 92.699219 139.582031 C 101.921875 138.132812 104.980469 130.765625 99.484375 123.214844 L 74.179688 88.425781 C 68.683594 80.875 70.371094 79.191406 77.921875 84.683594 Z M 112.714844 109.984375 " fill-opacity="1" fill-rule="nonzero"/><g fill="#8c52ff" fill-opacity="1"><g transform="translate(355.678795, 231.134369)"><g><path d="M 98.3125 -147.484375 C 112.207031 -147.484375 124.8125 -144.226562 136.125 -137.71875 C 147.4375 -131.21875 156.34375 -122.269531 162.84375 -110.875 C 169.34375 -99.476562 172.59375 -86.832031 172.59375 -72.9375 C 172.59375 -59.039062 169.429688 -46.4375 163.109375 -35.125 C 156.785156 -23.820312 148.144531 -14.921875 137.1875 -8.421875 C 126.238281 -1.921875 113.992188 1.328125 100.453125 1.328125 C 88.878906 1.328125 78.28125 -1.117188 68.65625 -6.015625 C 59.039062 -10.910156 51.117188 -17.632812 44.890625 -26.1875 L 44.890625 52.09375 C 44.890625 55.125 43.90625 57.617188 41.9375 59.578125 C 39.976562 61.535156 37.488281 62.515625 34.46875 62.515625 C 31.4375 62.515625 28.984375 61.535156 27.109375 59.578125 C 25.242188 57.617188 24.3125 55.125 24.3125 52.09375 L 24.3125 -7.75 C 24.132812 -8.28125 24.046875 -9.082031 24.046875 -10.15625 L 24.046875 -72.9375 C 24.046875 -86.832031 27.296875 -99.476562 33.796875 -110.875 C 40.296875 -122.269531 49.203125 -131.21875 60.515625 -137.71875 C 71.828125 -144.226562 84.425781 -147.484375 98.3125 -147.484375 Z M 98.3125 -17.359375 C 108.46875 -17.359375 117.6875 -19.765625 125.96875 -24.578125 C 134.25 -29.390625 140.75 -36.023438 145.46875 -44.484375 C 150.195312 -52.941406 152.5625 -62.425781 152.5625 -72.9375 C 152.5625 -83.445312 150.195312 -92.929688 145.46875 -101.390625 C 140.75 -109.847656 134.25 -116.523438 125.96875 -121.421875 C 117.6875 -126.328125 108.46875 -128.78125 98.3125 -128.78125 C 88.164062 -128.78125 78.992188 -126.328125 70.796875 -121.421875 C 62.609375 -116.523438 56.148438 -109.847656 51.421875 -101.390625 C 46.703125 -92.929688 44.34375 -83.445312 44.34375 -72.9375 C 44.34375 -69.90625 44.4375 -67.679688 44.625 -66.265625 C 44.800781 -65.898438 44.890625 -65.453125 44.890625 -64.921875 C 46.671875 -51.023438 52.503906 -39.625 62.390625 -30.71875 C 72.273438 -21.8125 84.25 -17.359375 98.3125 -17.359375 Z M 98.3125 -17.359375 "/></g></g></g><g fill="#8c52ff" fill-opacity="1"><g transform="translate(544.561182, 231.134369)"><g><path d="M 137.859375 -145.34375 C 141.597656 -143.5625 143.46875 -140.710938 143.46875 -136.796875 C 143.46875 -135.722656 143.203125 -134.472656 142.671875 -133.046875 L 84.15625 -6.953125 C 81.84375 -2.316406 78.457031 0 74 0 C 69.726562 0 66.523438 -2.316406 64.390625 -6.953125 L 5.078125 -132.78125 C 4.546875 -133.851562 4.28125 -135.101562 4.28125 -136.53125 C 4.28125 -140.269531 6.238281 -143.117188 10.15625 -145.078125 C 11.394531 -145.785156 12.816406 -146.140625 14.421875 -146.140625 C 16.203125 -146.140625 17.847656 -145.691406 19.359375 -144.796875 C 20.878906 -143.910156 21.992188 -142.578125 22.703125 -140.796875 L 74 -29.65625 L 124.765625 -140.796875 C 125.484375 -142.578125 126.640625 -143.957031 128.234375 -144.9375 C 129.835938 -145.914062 131.617188 -146.40625 133.578125 -146.40625 C 135.179688 -146.40625 136.609375 -146.050781 137.859375 -145.34375 Z M 137.859375 -145.34375 "/></g></g></g><g fill="#8c52ff" fill-opacity="1"><g transform="translate(692.300882, 231.134369)"><g><path d="M 38.734375 0 C 35.710938 0 33.21875 -0.976562 31.25 -2.9375 C 29.289062 -4.894531 28.3125 -7.390625 28.3125 -10.421875 L 28.3125 -135.71875 C 28.3125 -138.75 29.289062 -141.242188 31.25 -143.203125 C 33.21875 -145.160156 35.710938 -146.140625 38.734375 -146.140625 C 41.765625 -146.140625 44.210938 -145.160156 46.078125 -143.203125 C 47.953125 -141.242188 48.890625 -138.75 48.890625 -135.71875 L 48.890625 -10.421875 C 48.890625 -7.390625 47.953125 -4.894531 46.078125 -2.9375 C 44.210938 -0.976562 41.765625 0 38.734375 0 Z M 38.46875 -173.921875 C 34.375 -173.921875 30.945312 -175.347656 28.1875 -178.203125 C 25.425781 -181.054688 24.046875 -184.53125 24.046875 -188.625 C 24.046875 -192.894531 25.46875 -196.363281 28.3125 -199.03125 C 31.164062 -201.707031 34.640625 -203.046875 38.734375 -203.046875 C 42.660156 -203.046875 46.046875 -201.707031 48.890625 -199.03125 C 51.742188 -196.363281 53.171875 -192.894531 53.171875 -188.625 C 53.171875 -184.53125 51.742188 -181.054688 48.890625 -178.203125 C 46.046875 -175.347656 42.570312 -173.921875 38.46875 -173.921875 Z M 38.46875 -173.921875 "/></g></g></g><g fill="#8c52ff" fill-opacity="1"><g transform="translate(769.510237, 231.134369)"><g><path d="M 75.078125 1.328125 C 64.035156 1.328125 53.4375 -0.539062 43.28125 -4.28125 C 33.125 -8.019531 24.929688 -13.269531 18.703125 -20.03125 C 16.921875 -22.175781 16.03125 -24.226562 16.03125 -26.1875 C 16.03125 -29.207031 17.457031 -31.878906 20.3125 -34.203125 C 22.445312 -35.804688 24.671875 -36.609375 26.984375 -36.609375 C 30.015625 -36.609375 32.597656 -35.359375 34.734375 -32.859375 C 39.003906 -27.867188 44.65625 -24.035156 51.6875 -21.359375 C 58.726562 -18.691406 66.523438 -17.359375 75.078125 -17.359375 C 87.546875 -17.359375 96.894531 -19.492188 103.125 -23.765625 C 109.363281 -28.046875 112.570312 -33.660156 112.75 -40.609375 C 112.75 -47.023438 109.628906 -52.367188 103.390625 -56.640625 C 97.160156 -60.910156 87.273438 -64.117188 73.734375 -66.265625 C 56.285156 -69.109375 43.238281 -74.046875 34.59375 -81.078125 C 25.957031 -88.117188 21.640625 -96.628906 21.640625 -106.609375 C 21.640625 -119.609375 26.671875 -129.671875 36.734375 -136.796875 C 46.796875 -143.921875 59.398438 -147.484375 74.546875 -147.484375 C 86.296875 -147.484375 96.535156 -145.476562 105.265625 -141.46875 C 113.992188 -137.457031 121.03125 -131.890625 126.375 -124.765625 C 127.800781 -122.453125 128.515625 -120.40625 128.515625 -118.625 C 128.515625 -115.59375 127.085938 -113.1875 124.234375 -111.40625 C 122.984375 -110.519531 121.289062 -110.078125 119.15625 -110.078125 C 115.414062 -110.078125 112.300781 -111.410156 109.8125 -114.078125 C 101.082031 -124.054688 89.144531 -129.046875 74 -129.046875 C 64.207031 -129.046875 56.367188 -127.039062 50.484375 -123.03125 C 44.609375 -119.019531 41.671875 -113.988281 41.671875 -107.9375 C 41.671875 -101.519531 44.429688 -96.394531 49.953125 -92.5625 C 55.484375 -88.738281 65.28125 -85.671875 79.34375 -83.359375 C 98.40625 -80.148438 112.03125 -74.9375 120.21875 -67.71875 C 128.414062 -60.507812 132.515625 -51.5625 132.515625 -40.875 C 132.515625 -32.6875 130.066406 -25.382812 125.171875 -18.96875 C 120.273438 -12.550781 113.460938 -7.5625 104.734375 -4 C 96.003906 -0.445312 86.117188 1.328125 75.078125 1.328125 Z M 75.078125 1.328125 "/></g></g></g><g fill="#8c52ff" fill-opacity="1"><g transform="translate(913.509642, 231.134369)"><g><path d="M 86.296875 -147.484375 C 99.472656 -147.484375 111.140625 -144.410156 121.296875 -138.265625 C 131.453125 -132.117188 139.332031 -123.613281 144.9375 -112.75 C 150.550781 -101.882812 153.359375 -89.503906 153.359375 -75.609375 C 153.359375 -72.753906 152.46875 -70.484375 150.6875 -68.796875 C 148.90625 -67.109375 146.585938 -66.265625 143.734375 -66.265625 L 35.796875 -66.265625 C 37.222656 -51.648438 42.921875 -39.800781 52.890625 -30.71875 C 62.867188 -21.632812 75.335938 -17.09375 90.296875 -17.09375 C 96.710938 -17.09375 103.171875 -18.207031 109.671875 -20.4375 C 116.171875 -22.664062 121.378906 -25.472656 125.296875 -28.859375 C 127.617188 -30.640625 130.023438 -31.53125 132.515625 -31.53125 C 134.472656 -31.53125 136.429688 -30.816406 138.390625 -29.390625 C 140.710938 -27.253906 141.875 -24.847656 141.875 -22.171875 C 141.875 -19.859375 140.890625 -17.8125 138.921875 -16.03125 C 133.046875 -11.039062 125.566406 -6.898438 116.484375 -3.609375 C 107.398438 -0.316406 98.671875 1.328125 90.296875 1.328125 C 76.054688 1.328125 63.320312 -1.832031 52.09375 -8.15625 C 40.875 -14.476562 32.101562 -23.289062 25.78125 -34.59375 C 19.457031 -45.90625 16.296875 -58.6875 16.296875 -72.9375 C 16.296875 -87.363281 19.28125 -100.234375 25.25 -111.546875 C 31.21875 -122.859375 39.5 -131.675781 50.09375 -138 C 60.6875 -144.320312 72.753906 -147.484375 86.296875 -147.484375 Z M 86.296875 -129.046875 C 72.753906 -129.046875 61.53125 -124.859375 52.625 -116.484375 C 43.726562 -108.117188 38.296875 -97.078125 36.328125 -83.359375 L 134.125 -83.359375 C 132.695312 -97.078125 127.707031 -108.117188 119.15625 -116.484375 C 110.601562 -124.859375 99.648438 -129.046875 86.296875 -129.046875 Z M 86.296875 -129.046875 "/></g></g></g><g fill="#8c52ff" fill-opacity="1"><g transform="translate(1077.546101, 231.134369)"><g><path d="M 90.03125 -147.75 C 97.519531 -147.75 103.441406 -146.769531 107.796875 -144.8125 C 112.160156 -142.851562 114.34375 -140.09375 114.34375 -136.53125 C 114.34375 -135.457031 114.253906 -134.65625 114.078125 -134.125 C 113.367188 -131.625 112.253906 -129.925781 110.734375 -129.03125 C 109.222656 -128.144531 107.132812 -127.703125 104.46875 -127.703125 C 102.863281 -127.703125 100.101562 -127.882812 96.1875 -128.25 C 94.757812 -128.425781 92.617188 -128.515625 89.765625 -128.515625 C 76.410156 -128.515625 65.5 -124.953125 57.03125 -117.828125 C 48.570312 -110.703125 44.34375 -101.4375 44.34375 -90.03125 L 44.34375 -10.15625 C 44.34375 -6.945312 43.453125 -4.453125 41.671875 -2.671875 C 39.890625 -0.890625 37.398438 0 34.203125 0 C 30.992188 0 28.5 -0.890625 26.71875 -2.671875 C 24.9375 -4.453125 24.046875 -6.945312 24.046875 -10.15625 L 24.046875 -135.984375 C 24.046875 -139.191406 24.9375 -141.6875 26.71875 -143.46875 C 28.5 -145.25 30.992188 -146.140625 34.203125 -146.140625 C 37.398438 -146.140625 39.890625 -145.25 41.671875 -143.46875 C 43.453125 -141.6875 44.34375 -139.191406 44.34375 -135.984375 L 44.34375 -124.234375 C 49.507812 -131.710938 56.097656 -137.5 64.109375 -141.59375 C 72.128906 -145.695312 80.769531 -147.75 90.03125 -147.75 Z M 90.03125 -147.75 "/></g></g></g></svg>