<svg width="21" height="20" viewBox="0 0 21 20" fill="none" xmlns="http://www.w3.org/2000/svg">
<path d="M8.83334 15.8334C8.63863 15.8337 8.44993 15.7659 8.3 15.6417C8.12958 15.5004 8.02238 15.2971 8.00206 15.0767C7.98173 14.8562 8.04996 14.6368 8.19167 14.4667L11.925 10L8.325 5.52504C8.1852 5.35287 8.11978 5.13208 8.14324 4.91155C8.1667 4.69102 8.2771 4.48893 8.45 4.35004C8.62431 4.19667 8.85469 4.12297 9.08565 4.1467C9.31661 4.17043 9.52719 4.28943 9.66667 4.47504L13.6917 9.47504C13.9444 9.78254 13.9444 10.2259 13.6917 10.5334L9.525 15.5334C9.35545 15.7379 9.09853 15.8493 8.83334 15.8334Z" fill="#1C252E"/>
</svg>
